solid infoscreen
facet normal 0.0 0.0 1.0
  outer loop
    vertex 62.245942808539894 17.433455045677306 34.3
    vertex 60.2459428085399 112.23345504567732 34.3
    vertex 60.2459428085399 17.433455045677306 34.3
  endloop
endfacet
facet normal 0.0 0.0 1.0
  outer loop
    vertex 60.2459428085399 112.23345504567732 34.3
    vertex 62.245942808539894 17.433455045677306 34.3
    vertex 62.245942808539894 112.23345504567732 34.3
  endloop
endfacet
facet normal 7.085369740410886e-16 1.0 -1.4660303360198216e-16
  outer loop
    vertex 60.2459428085399 112.23345504567732 34.3
    vertex 93.04594280853989 112.23345504567729 32.2
    vertex 60.2459428085399 112.23345504567732 32.199999999999996
  endloop
endfacet
facet normal 7.085369740410886e-16 1.0 -1.4660303360198216e-16
  outer loop
    vertex 93.04594280853989 112.23345504567729 32.2
    vertex 60.2459428085399 112.23345504567732 34.3
    vertex 62.245942808539894 112.23345504567732 34.3
  endloop
endfacet
facet normal 7.085369740410886e-16 1.0 -1.4660303360198216e-16
  outer loop
    vertex 93.04594280853989 112.23345504567729 32.2
    vertex 62.245942808539894 112.23345504567732 34.3
    vertex 93.04594280853989 112.23345504567729 37.0
  endloop
endfacet
facet normal 7.085369740410886e-16 1.0 -1.4660303360198216e-16
  outer loop
    vertex 93.04594280853989 112.23345504567729 37.0
    vertex 62.245942808539894 112.23345504567732 34.3
    vertex 62.245942808539894 112.23345504567732 37.0
  endloop
endfacet
facet normal 1.0 0.0 0.0
  outer loop
    vertex 123.84594280853989 112.23345504567732 32.199999999999996
    vertex 123.84594280853989 17.433455045677306 34.3
    vertex 123.84594280853989 17.433455045677306 32.199999999999996
  endloop
endfacet
facet normal 1.0 0.0 0.0
  outer loop
    vertex 123.84594280853989 17.433455045677306 34.3
    vertex 123.84594280853989 112.23345504567732 32.199999999999996
    vertex 123.84594280853989 112.23345504567732 34.3
  endloop
endfacet
facet normal 0.0 0.0 1.0
  outer loop
    vertex 121.8459428085399 17.433455045677306 37.0
    vertex 62.245942808539894 112.23345504567732 37.0
    vertex 62.245942808539894 17.433455045677306 37.0
  endloop
endfacet
facet normal 0.0 0.0 1.0
  outer loop
    vertex 62.245942808539894 112.23345504567732 37.0
    vertex 121.8459428085399 17.433455045677306 37.0
    vertex 93.04594280853989 89.2334550456773 37.0
  endloop
endfacet
facet normal 0.0 0.0 1.0
  outer loop
    vertex 93.04594280853989 89.2334550456773 37.0
    vertex 121.8459428085399 17.433455045677306 37.0
    vertex 98.04594280853989 89.2334550456773 37.0
  endloop
endfacet
facet normal 0.0 0.0 1.0
  outer loop
    vertex 98.04594280853989 89.2334550456773 37.0
    vertex 121.8459428085399 17.433455045677306 37.0
    vertex 98.04594280853989 112.23345504567729 37.0
  endloop
endfacet
facet normal 0.0 0.0 1.0
  outer loop
    vertex 98.04594280853989 112.23345504567729 37.0
    vertex 121.8459428085399 17.433455045677306 37.0
    vertex 121.8459428085399 112.23345504567732 37.0
  endloop
endfacet
facet normal 0.0 0.0 1.0
  outer loop
    vertex 93.04594280853989 112.23345504567729 37.0
    vertex 62.245942808539894 112.23345504567732 37.0
    vertex 93.04594280853989 89.2334550456773 37.0
  endloop
endfacet
facet normal -1.0 -0.0 -0.0
  outer loop
    vertex 60.2459428085399 112.23345504567732 34.3
    vertex 60.2459428085399 17.433455045677306 32.199999999999996
    vertex 60.2459428085399 17.433455045677306 34.3
  endloop
endfacet
facet normal -1.0 -0.0 -0.0
  outer loop
    vertex 60.2459428085399 17.433455045677306 32.199999999999996
    vertex 60.2459428085399 112.23345504567732 34.3
    vertex 60.2459428085399 112.23345504567732 32.199999999999996
  endloop
endfacet
facet normal 0.0 0.0 1.0
  outer loop
    vertex 123.84594280853989 17.433455045677306 34.3
    vertex 121.8459428085399 112.23345504567732 34.3
    vertex 121.8459428085399 17.433455045677306 34.3
  endloop
endfacet
facet normal 0.0 0.0 1.0
  outer loop
    vertex 121.8459428085399 112.23345504567732 34.3
    vertex 123.84594280853989 17.433455045677306 34.3
    vertex 123.84594280853989 112.23345504567732 34.3
  endloop
endfacet
facet normal 0.0 -1.0 0.0
  outer loop
    vertex 121.8459428085399 17.433455045677306 37.0
    vertex 62.245942808539894 17.433455045677306 34.3
    vertex 121.8459428085399 17.433455045677306 34.3
  endloop
endfacet
facet normal 0.0 -1.0 0.0
  outer loop
    vertex 62.245942808539894 17.433455045677306 34.3
    vertex 121.8459428085399 17.433455045677306 37.0
    vertex 62.245942808539894 17.433455045677306 37.0
  endloop
endfacet
facet normal 0.0 -1.0 0.0
  outer loop
    vertex 123.84594280853989 17.433455045677306 34.3
    vertex 60.2459428085399 17.433455045677306 32.199999999999996
    vertex 123.84594280853989 17.433455045677306 32.199999999999996
  endloop
endfacet
facet normal 0.0 -1.0 0.0
  outer loop
    vertex 60.2459428085399 17.433455045677306 32.199999999999996
    vertex 123.84594280853989 17.433455045677306 34.3
    vertex 60.2459428085399 17.433455045677306 34.3
  endloop
endfacet
facet normal 0.0 -1.0 0.0
  outer loop
    vertex 60.2459428085399 17.433455045677306 34.3
    vertex 123.84594280853989 17.433455045677306 34.3
    vertex 121.8459428085399 17.433455045677306 34.3
  endloop
endfacet
facet normal 0.0 -1.0 0.0
  outer loop
    vertex 60.2459428085399 17.433455045677306 34.3
    vertex 121.8459428085399 17.433455045677306 34.3
    vertex 62.245942808539894 17.433455045677306 34.3
  endloop
endfacet
facet normal 1.0 0.0 0.0
  outer loop
    vertex 121.8459428085399 112.23345504567732 34.3
    vertex 121.8459428085399 17.433455045677306 37.0
    vertex 121.8459428085399 17.433455045677306 34.3
  endloop
endfacet
facet normal 1.0 0.0 0.0
  outer loop
    vertex 121.8459428085399 17.433455045677306 37.0
    vertex 121.8459428085399 112.23345504567732 34.3
    vertex 121.8459428085399 112.23345504567732 37.0
  endloop
endfacet
facet normal 7.596754399798325e-18 3.332639767557618e-17 -1.0
  outer loop
    vertex 123.84594280853989 112.23345504567732 32.199999999999996
    vertex 98.04594280853989 89.2334550456773 32.2
    vertex 98.04594280853989 112.23345504567729 32.2
  endloop
endfacet
facet normal 7.596754399798325e-18 3.332639767557618e-17 -1.0
  outer loop
    vertex 93.04594280853989 112.23345504567729 32.2
    vertex 60.2459428085399 17.433455045677306 32.199999999999996
    vertex 60.2459428085399 112.23345504567732 32.199999999999996
  endloop
endfacet
facet normal 7.596754399798325e-18 3.332639767557618e-17 -1.0
  outer loop
    vertex 60.2459428085399 17.433455045677306 32.199999999999996
    vertex 93.04594280853989 112.23345504567729 32.2
    vertex 93.04594280853989 89.2334550456773 32.2
  endloop
endfacet
facet normal 7.596754399798325e-18 3.332639767557618e-17 -1.0
  outer loop
    vertex 60.2459428085399 17.433455045677306 32.199999999999996
    vertex 93.04594280853989 89.2334550456773 32.2
    vertex 123.84594280853989 17.433455045677306 32.199999999999996
  endloop
endfacet
facet normal 7.596754399798325e-18 3.332639767557618e-17 -1.0
  outer loop
    vertex 123.84594280853989 17.433455045677306 32.199999999999996
    vertex 93.04594280853989 89.2334550456773 32.2
    vertex 98.04594280853989 89.2334550456773 32.2
  endloop
endfacet
facet normal 7.596754399798325e-18 3.332639767557618e-17 -1.0
  outer loop
    vertex 123.84594280853989 17.433455045677306 32.199999999999996
    vertex 98.04594280853989 89.2334550456773 32.2
    vertex 123.84594280853989 112.23345504567732 32.199999999999996
  endloop
endfacet
facet normal -1.0 -0.0 -0.0
  outer loop
    vertex 62.245942808539894 112.23345504567732 37.0
    vertex 62.245942808539894 17.433455045677306 34.3
    vertex 62.245942808539894 17.433455045677306 37.0
  endloop
endfacet
facet normal -1.0 -0.0 -0.0
  outer loop
    vertex 62.245942808539894 17.433455045677306 34.3
    vertex 62.245942808539894 112.23345504567732 37.0
    vertex 62.245942808539894 112.23345504567732 34.3
  endloop
endfacet
facet normal -1.0 0.0 0.0
  outer loop
    vertex 98.04594280853989 112.23345504567729 37.0
    vertex 98.04594280853989 89.2334550456773 32.2
    vertex 98.04594280853989 89.2334550456773 37.0
  endloop
endfacet
facet normal -1.0 0.0 0.0
  outer loop
    vertex 98.04594280853989 89.2334550456773 32.2
    vertex 98.04594280853989 112.23345504567729 37.0
    vertex 98.04594280853989 112.23345504567729 32.2
  endloop
endfacet
facet normal 1.0 0.0 0.0
  outer loop
    vertex 93.04594280853989 112.23345504567729 32.2
    vertex 93.04594280853989 89.2334550456773 37.0
    vertex 93.04594280853989 89.2334550456773 32.2
  endloop
endfacet
facet normal 1.0 0.0 0.0
  outer loop
    vertex 93.04594280853989 89.2334550456773 37.0
    vertex 93.04594280853989 112.23345504567729 32.2
    vertex 93.04594280853989 112.23345504567729 37.0
  endloop
endfacet
facet normal 0.0 1.0 0.0
  outer loop
    vertex 93.04594280853989 89.2334550456773 37.0
    vertex 98.04594280853989 89.2334550456773 32.2
    vertex 93.04594280853989 89.2334550456773 32.2
  endloop
endfacet
facet normal 0.0 1.0 0.0
  outer loop
    vertex 98.04594280853989 89.2334550456773 32.2
    vertex 93.04594280853989 89.2334550456773 37.0
    vertex 98.04594280853989 89.2334550456773 37.0
  endloop
endfacet
facet normal -9.074730394279628e-16 1.0 -1.8760753422885453e-16
  outer loop
    vertex 98.04594280853989 112.23345504567729 37.0
    vertex 121.8459428085399 112.23345504567732 34.3
    vertex 98.04594280853989 112.23345504567729 32.2
  endloop
endfacet
facet normal -9.074730394279628e-16 1.0 -1.8760753422885453e-16
  outer loop
    vertex 121.8459428085399 112.23345504567732 34.3
    vertex 98.04594280853989 112.23345504567729 37.0
    vertex 121.8459428085399 112.23345504567732 37.0
  endloop
endfacet
facet normal -9.074730394279628e-16 1.0 -1.8760753422885453e-16
  outer loop
    vertex 98.04594280853989 112.23345504567729 32.2
    vertex 123.84594280853989 112.23345504567732 34.3
    vertex 123.84594280853989 112.23345504567732 32.199999999999996
  endloop
endfacet
facet normal -9.074730394279628e-16 1.0 -1.8760753422885453e-16
  outer loop
    vertex 123.84594280853989 112.23345504567732 34.3
    vertex 98.04594280853989 112.23345504567729 32.2
    vertex 121.8459428085399 112.23345504567732 34.3
  endloop
endfacet
endsolid infoscreen
