solid infoscreen
facet normal 0.0 0.0 1.0
  outer loop
    vertex 62.245942808539894 17.433455045677306 31.3
    vertex 60.2459428085399 112.23345504567732 31.3
    vertex 60.2459428085399 17.433455045677306 31.3
  endloop
endfacet
facet normal 0.0 0.0 1.0
  outer loop
    vertex 60.2459428085399 112.23345504567732 31.3
    vertex 62.245942808539894 17.433455045677306 31.3
    vertex 62.245942808539894 112.23345504567732 31.3
  endloop
endfacet
facet normal 0.0 1.0 0.0
  outer loop
    vertex 62.245942808539894 112.23345504567732 34.0
    vertex 121.8459428085399 112.23345504567732 31.3
    vertex 62.245942808539894 112.23345504567732 31.3
  endloop
endfacet
facet normal 0.0 1.0 0.0
  outer loop
    vertex 121.8459428085399 112.23345504567732 31.3
    vertex 62.245942808539894 112.23345504567732 34.0
    vertex 121.8459428085399 112.23345504567732 34.0
  endloop
endfacet
facet normal 0.0 1.0 0.0
  outer loop
    vertex 60.2459428085399 112.23345504567732 31.3
    vertex 123.84594280853989 112.23345504567732 29.199999999999996
    vertex 60.2459428085399 112.23345504567732 29.199999999999996
  endloop
endfacet
facet normal 0.0 1.0 0.0
  outer loop
    vertex 123.84594280853989 112.23345504567732 29.199999999999996
    vertex 60.2459428085399 112.23345504567732 31.3
    vertex 123.84594280853989 112.23345504567732 31.3
  endloop
endfacet
facet normal 0.0 1.0 0.0
  outer loop
    vertex 123.84594280853989 112.23345504567732 31.3
    vertex 60.2459428085399 112.23345504567732 31.3
    vertex 62.245942808539894 112.23345504567732 31.3
  endloop
endfacet
facet normal 0.0 1.0 0.0
  outer loop
    vertex 123.84594280853989 112.23345504567732 31.3
    vertex 62.245942808539894 112.23345504567732 31.3
    vertex 121.8459428085399 112.23345504567732 31.3
  endloop
endfacet
facet normal 1.0 0.0 0.0
  outer loop
    vertex 123.84594280853989 112.23345504567732 29.199999999999996
    vertex 123.84594280853989 17.433455045677306 31.3
    vertex 123.84594280853989 17.433455045677306 29.199999999999996
  endloop
endfacet
facet normal 1.0 0.0 0.0
  outer loop
    vertex 123.84594280853989 17.433455045677306 31.3
    vertex 123.84594280853989 112.23345504567732 29.199999999999996
    vertex 123.84594280853989 112.23345504567732 31.3
  endloop
endfacet
facet normal 0.0 0.0 1.0
  outer loop
    vertex 121.8459428085399 17.433455045677306 34.0
    vertex 62.245942808539894 112.23345504567732 34.0
    vertex 62.245942808539894 17.433455045677306 34.0
  endloop
endfacet
facet normal 0.0 0.0 1.0
  outer loop
    vertex 62.245942808539894 112.23345504567732 34.0
    vertex 121.8459428085399 17.433455045677306 34.0
    vertex 121.8459428085399 112.23345504567732 34.0
  endloop
endfacet
facet normal -1.0 -0.0 -0.0
  outer loop
    vertex 60.2459428085399 112.23345504567732 31.3
    vertex 60.2459428085399 17.433455045677306 29.199999999999996
    vertex 60.2459428085399 17.433455045677306 31.3
  endloop
endfacet
facet normal -1.0 -0.0 -0.0
  outer loop
    vertex 60.2459428085399 17.433455045677306 29.199999999999996
    vertex 60.2459428085399 112.23345504567732 31.3
    vertex 60.2459428085399 112.23345504567732 29.199999999999996
  endloop
endfacet
facet normal 0.0 0.0 1.0
  outer loop
    vertex 123.84594280853989 17.433455045677306 31.3
    vertex 121.8459428085399 112.23345504567732 31.3
    vertex 121.8459428085399 17.433455045677306 31.3
  endloop
endfacet
facet normal 0.0 0.0 1.0
  outer loop
    vertex 121.8459428085399 112.23345504567732 31.3
    vertex 123.84594280853989 17.433455045677306 31.3
    vertex 123.84594280853989 112.23345504567732 31.3
  endloop
endfacet
facet normal 0.0 -1.0 0.0
  outer loop
    vertex 121.8459428085399 17.433455045677306 34.0
    vertex 62.245942808539894 17.433455045677306 31.3
    vertex 121.8459428085399 17.433455045677306 31.3
  endloop
endfacet
facet normal 0.0 -1.0 0.0
  outer loop
    vertex 62.245942808539894 17.433455045677306 31.3
    vertex 121.8459428085399 17.433455045677306 34.0
    vertex 62.245942808539894 17.433455045677306 34.0
  endloop
endfacet
facet normal 0.0 -1.0 0.0
  outer loop
    vertex 123.84594280853989 17.433455045677306 31.3
    vertex 60.2459428085399 17.433455045677306 29.199999999999996
    vertex 123.84594280853989 17.433455045677306 29.199999999999996
  endloop
endfacet
facet normal 0.0 -1.0 0.0
  outer loop
    vertex 60.2459428085399 17.433455045677306 29.199999999999996
    vertex 123.84594280853989 17.433455045677306 31.3
    vertex 60.2459428085399 17.433455045677306 31.3
  endloop
endfacet
facet normal 0.0 -1.0 0.0
  outer loop
    vertex 60.2459428085399 17.433455045677306 31.3
    vertex 123.84594280853989 17.433455045677306 31.3
    vertex 121.8459428085399 17.433455045677306 31.3
  endloop
endfacet
facet normal 0.0 -1.0 0.0
  outer loop
    vertex 60.2459428085399 17.433455045677306 31.3
    vertex 121.8459428085399 17.433455045677306 31.3
    vertex 62.245942808539894 17.433455045677306 31.3
  endloop
endfacet
facet normal 1.0 0.0 0.0
  outer loop
    vertex 121.8459428085399 112.23345504567732 31.3
    vertex 121.8459428085399 17.433455045677306 34.0
    vertex 121.8459428085399 17.433455045677306 31.3
  endloop
endfacet
facet normal 1.0 0.0 0.0
  outer loop
    vertex 121.8459428085399 17.433455045677306 34.0
    vertex 121.8459428085399 112.23345504567732 31.3
    vertex 121.8459428085399 112.23345504567732 34.0
  endloop
endfacet
facet normal 0.0 0.0 -1.0
  outer loop
    vertex 123.84594280853989 112.23345504567732 29.199999999999996
    vertex 60.2459428085399 17.433455045677306 29.199999999999996
    vertex 60.2459428085399 112.23345504567732 29.199999999999996
  endloop
endfacet
facet normal 0.0 0.0 -1.0
  outer loop
    vertex 60.2459428085399 17.433455045677306 29.199999999999996
    vertex 123.84594280853989 112.23345504567732 29.199999999999996
    vertex 123.84594280853989 17.433455045677306 29.199999999999996
  endloop
endfacet
facet normal -1.0 -0.0 -0.0
  outer loop
    vertex 62.245942808539894 112.23345504567732 34.0
    vertex 62.245942808539894 17.433455045677306 31.3
    vertex 62.245942808539894 17.433455045677306 34.0
  endloop
endfacet
facet normal -1.0 -0.0 -0.0
  outer loop
    vertex 62.245942808539894 17.433455045677306 31.3
    vertex 62.245942808539894 112.23345504567732 34.0
    vertex 62.245942808539894 112.23345504567732 31.3
  endloop
endfacet
endsolid infoscreen
